<?xml version="1.0" encoding="UTF-8"?>
<svg id="Layer_6" data-name="Layer 6" xmlns="http://www.w3.org/2000/svg" viewBox="0 0 1000 1000">
  <defs>
    <style>
      .cls-1 {
        fill: #fff;
      }

      .cls-2 {
        fill: #031400;
      }
    </style>
  </defs>
  <path class="cls-2" d="m689.6,278.43v265.27c0,31.33-25.63,56.96-56.97,56.96h-265.26c-31.33,0-56.97-25.63-56.97-56.96v-265.27c0-31.33,25.64-56.96,56.97-56.96h265.26c31.33,0,56.97,25.63,56.97,56.96Z"/>
  <g>
    <path class="cls-1" d="m435.97,320.35s64.16-39.36,118.32-12.78c0,0-5.99,54.87-110.62,72.55,0,0,107.75,43.8,137.14-85.28,0,0-95.27-54.85-144.83,25.52Z"/>
    <path class="cls-1" d="m391.58,300.45s-61.7,152.5,8,234.69c0,0,11.96,12.1,23.19-21.12,0,0,45.12-123.81-31.19-213.57Zm23.22,194.63c-5.82,21.5-15.99,9.33-15.99,9.33-39.1-74.91-5.55-169.28-5.55-169.28,50.25,66.42,21.54,159.95,21.54,159.95Z"/>
    <path class="cls-1" d="m488.37,417.55c9.54,1.44,18.37,4.22,26.37,8.34,16.67,8.57,29.58,23.1,38.38,43.18,9.24,21.09,18.59,38.84,27.94,53.13-7.85-1.53-16.01-3.65-23.96-6.58-12.57-4.63-23.05-10.73-31.15-18.13-9.11-8.32-15.25-18.16-18.77-30.08-.77-3.28-4.36-17.71-11.07-33.69-2.45-5.83-5.03-11.22-7.75-16.17m-15.72-20.71c-15.59,0-26.37,2.79-26.37,2.79,28.84,14.13,41.97,72.74,41.97,72.74,19.19,66.73,101.95,73.19,133.29,73.19,7.53,0,12.09-.37,12.09-.37h0c-.42,0-25.91-.35-62.56-83.97-24.01-54.78-69.48-64.38-98.4-64.38h0Z"/>
  </g>
  <path d="m266.64,778.47l-15.21-21.97h-16.79v21.97h-18.25v-78.86h34.13c21.07,0,34.25,10.93,34.25,28.62,0,11.83-5.97,20.5-16.22,24.9l17.69,25.35h-19.6Zm-17.12-63.99h-14.87v27.49h14.87c11.15,0,16.79-5.18,16.79-13.74s-5.63-13.74-16.79-13.74Zm79.08,16.9v-.02h-18.13v14.22h18.13s36.62-.01,36.62-.01v-14.19h-36.62Zm0,32.44v-.03h-18.13v14.68h61.06v-14.65h-42.93Zm-18.13-64.21v14.65h18.13s41.46-.01,41.46-.01v-14.64h-59.59Zm344.6,31.77v-.02h-18.13v14.22h18.13s36.62-.01,36.62-.01v-14.19h-36.62Zm0,32.44v-.03h-18.13v14.68h61.06v-14.65h-42.93Zm-18.13-64.21v14.65h18.13s41.46-.01,41.46-.01v-14.64h-59.59Zm-167.29,0v78.86h-14.98l-39.32-47.88v47.88h-18.02v-78.86h15.1l39.2,47.88v-47.88h18.03Zm28.74-.07l-.02,78.99h17.58v-78.99s-17.56,0-17.56,0Zm120.75.07l-34.13,78.86h-18.03l-34.02-78.86h19.71l24,56.33,24.33-56.33h18.14Zm120.99,14.87h-25.24v-14.87h68.72v14.87h-25.24v63.99h-18.25v-63.99Zm-232.95-47.5c-6.37,0-10.64,4.16-10.64,9.54s4.27,9.54,10.64,9.54,10.64-4.17,10.64-9.87c0-5.27-4.28-9.21-10.64-9.21Z"/>
</svg>