<?xml version="1.0" encoding="UTF-8"?>
<svg id="Layer_6" data-name="Layer 6" xmlns="http://www.w3.org/2000/svg" viewBox="0 0 1280 1279.99">
  <defs>
    <style>
      .cls-1 {
        fill: #fff;
      }

      .cls-2 {
        fill: #031400;
      }
    </style>
  </defs>
  <path class="cls-2" d="m1280,192.28v895.43c0,105.75-86.53,192.28-192.29,192.28H192.29c-105.75,0-192.29-86.53-192.29-192.28V192.28C0,86.53,86.54,0,192.29,0h895.42c105.76,0,192.29,86.53,192.29,192.28Z"/>
  <g>
    <path class="cls-1" d="m423.86,333.8s216.56-132.88,399.38-43.15c0,0-20.23,185.22-373.41,244.88,0,0,363.73,147.85,462.93-287.87,0,0-321.6-185.15-488.9,86.14Z"/>
    <path class="cls-1" d="m274.02,266.64s-208.26,514.78,27.01,792.21c0,0,40.36,40.83,78.28-71.28,0,0,152.32-417.94-105.29-720.92Zm78.37,657.01c-19.66,72.58-53.97,31.49-53.97,31.49-131.98-252.87-18.73-571.42-18.73-571.42,169.61,224.21,72.71,539.93,72.71,539.93Z"/>
    <path class="cls-1" d="m600.73,661.9c32.21,4.85,62,14.26,89.01,28.15,56.26,28.93,99.85,77.97,129.57,145.76,31.2,71.19,62.74,131.12,94.33,179.35-26.51-5.16-54.05-12.31-80.88-22.21-42.43-15.64-77.8-36.23-105.15-61.18-30.76-28.07-51.49-61.3-63.35-101.55-2.61-11.06-14.72-59.77-37.35-113.72-8.26-19.68-16.99-37.88-26.18-54.59m-53.06-69.92c-52.64,0-89.02,9.42-89.02,9.42,97.34,47.69,141.67,245.52,141.67,245.52,64.79,225.26,344.14,247.07,449.92,247.07,25.4,0,40.8-1.26,40.8-1.26h-.02c-1.42,0-87.47-1.18-211.19-283.45-81.05-184.92-234.55-217.31-332.15-217.31h0Z"/>
  </g>
</svg>